<?xml version="1.0" encoding="UTF-8"?>
<svg width="341px" height="70px" viewBox="0 0 341 70" version="1.1" xmlns="http://www.w3.org/2000/svg" xmlns:xlink="http://www.w3.org/1999/xlink">
    <title>heart@2x</title>
    <g id="Page-1" stroke="none" stroke-width="1" fill="none" fill-rule="evenodd">
        <g id="heart" fill="#F5623D">
            <g id="noun_freedom_92585" transform="translate(0.000000, 3.000000)" fill-rule="nonzero">
                <path d="M18.9875,0 C13.7225,0 9.255,1.8625 5.585,5.585 C1.86,9.255 0,13.7225 0,18.9875 C0,23.1375 1.225,27.55 3.67,32.285 C3.67,32.285 3.67,32.285 3.67,32.3375 C5.6375,35.4225 7.7625,38.455 10.0525,41.3775 C10.21,41.5375 10.3175,41.7525 10.4775,41.9125 C11.5925,43.24 12.7125,44.625 13.935,46.0075 L13.935,16.435 L18.72,16.435 C18.72,18.8275 18.72,21.275 18.72,23.6675 C18.72,24.04 18.72,24.465 18.72,24.8375 C18.72,24.9425 18.72,25.05 18.72,25.21 C18.72,25.7925 18.72,26.38 18.72,27.0175 L17.6575,27.6025 C17.0725,27.6025 16.5425,27.6025 15.9575,27.6025 C15.585,27.6025 15.16,27.6025 14.7875,27.6025 L14.7875,31.4325 C15.16,31.4325 15.585,31.4325 15.9575,31.4325 C16.5425,31.4325 17.0725,31.4325 17.6575,31.4325 L22.5525,27.0175 C22.5525,26.38 22.5525,25.795 22.5525,25.21 C22.5525,25.05 22.5525,24.9425 22.5525,24.8375 C22.5525,24.465 22.5525,24.04 22.5525,23.6675 C22.5525,21.275 22.5525,18.8275 22.5525,16.435 L27.1275,16.435 C27.1275,27.4425 27.1275,38.455 27.1275,49.4625 L22.4475,49.4625 C22.4475,47.07 22.4475,44.6225 22.4475,42.2275 C22.4475,41.8575 22.4475,41.4325 22.4475,41.06 C22.4475,40.9 22.4475,40.79 22.4475,40.685 C22.4475,40.1025 22.4475,39.465 22.4475,38.825 L23.51,38.2925 C24.095,38.2925 24.68,38.2925 25.265,38.2925 C25.6375,38.2925 26.01,38.2925 26.3825,38.2925 L26.3825,34.41 C26.01,34.41 25.6375,34.41 25.265,34.41 C24.6825,34.41 24.0975,34.41 23.51,34.41 L18.6175,38.825 C18.6175,39.465 18.6175,40.1025 18.6175,40.685 C18.6175,40.79 18.6175,40.9 18.6175,41.06 C18.6175,41.43 18.6175,41.855 18.6175,42.2275 C18.6175,44.6225 18.6175,47.07 18.6175,49.4625 L17.1825,49.4625 C17.3425,49.6775 17.555,49.8875 17.7125,50.045 C17.82,50.205 17.925,50.31 18.085,50.42 C22.5,54.8325 27.34,59.035 32.6575,63.0225 C34.0925,64.0325 35.475,65.0975 36.9125,66.1075 C37.1775,66.265 37.495,66.4775 37.87,66.745 C38.19,66.48 38.5075,66.265 38.8275,66.1075 C39.5725,65.525 40.3175,64.99 41.0075,64.5625 C47.125,60.15 52.71,55.4675 57.655,50.42 C57.7625,50.31 57.8675,50.205 58.025,50.1 L58.025,50.045 C58.185,49.835 58.3975,49.62 58.5575,49.4625 L56.4825,49.4625 C56.4825,38.455 56.4825,27.4425 56.4825,16.435 L61.22,16.435 L61.22,46.59 C62.4425,45.26 63.56,43.88 64.6775,42.55 C64.835,42.39 64.94,42.18 65.1025,42.0175 C67.0675,39.5175 68.985,36.965 70.7375,34.36 C71.165,33.67 71.5925,32.9775 72.0675,32.2875 L72.015,32.34 C73.555,29.31 74.62,26.4375 75.2025,23.6175 C75.5225,22.075 75.6825,20.5325 75.6825,18.99 C75.6825,13.725 73.8225,9.255 70.0975,5.5875 C66.4275,1.865 61.96,0.0025 56.6975,0.0025 C51.4325,0.0025 46.9625,1.865 43.1875,5.5875 C40.8475,7.9825 39.2525,10.64 38.3475,13.67 C38.295,13.775 38.24,13.8825 38.135,13.9375 C38.0275,13.99 37.92,14.0425 37.815,14.0425 C37.7075,14.0425 37.6025,13.99 37.495,13.9375 C37.39,13.885 37.3375,13.7775 37.3375,13.67 C36.435,10.64 34.8375,7.98 32.445,5.5875 C28.72,1.8625 24.25,0 18.9875,0 L18.9875,0 Z M47.9725,16.435 L52.6525,16.435 C52.6525,27.4425 52.6525,38.455 52.6525,49.4625 L47.9725,49.4625 C47.9725,38.455 47.9725,27.445 47.9725,16.435 L47.9725,16.435 Z M30.955,16.435 L35.69,16.435 C35.69,27.4425 35.69,38.455 35.69,49.4625 L30.955,49.4625 C30.955,38.455 30.955,27.445 30.955,16.435 L30.955,16.435 Z M39.515,16.435 L44.1425,16.435 C44.1425,27.4425 44.1425,38.455 44.1425,49.4625 L39.515,49.4625 C39.515,38.455 39.515,27.445 39.515,16.435 L39.515,16.435 Z" id="Shape"></path>
            </g>
            <g id="Group-2-Copy" transform="translate(90.000000, 0.000000)" font-family="Montserrat-Bold, Montserrat" font-weight="bold">
                <g id="Group">
                    <text id="Liberators" font-size="38">
                        <tspan x="0" y="60">LIBERATORS</tspan>
                    </text>
                    <text id="the" font-size="26">
                        <tspan x="0" y="25">the</tspan>
                    </text>
                </g>
            </g>
        </g>
    </g>
</svg>