<?xml version="1.0" encoding="UTF-8"?>
<svg width="394px" height="53px" viewBox="0 0 394 53" version="1.1" xmlns="http://www.w3.org/2000/svg" xmlns:xlink="http://www.w3.org/1999/xlink">
    <title>rose@3x</title>
    <g id="Page-1" stroke="none" stroke-width="1" fill="none" fill-rule="evenodd">
        <g id="rose" fill="#F5623D">
            <g id="noun_Rose_652431" transform="translate(83.000000, 0.000000)" fill-rule="nonzero">
                <path d="M20,12.5 C8.954305,12.5 0,21.454305 0,32.5 C0,43.545695 8.954305,52.5 20,52.5 C22.5408934,52.5 25.0180653,52.0253768 27.3335309,51.1123604 C27.9757621,50.8591208 28.2911022,50.1331981 28.0378626,49.4909669 C27.784623,48.8487356 27.0587004,48.5333956 26.4164691,48.7866353 C24.3918577,49.5849641 22.2256868,50 20,50 C10.3350169,50 2.5,42.1649831 2.5,32.5 C2.5,22.8350169 10.3350169,15 20,15 C22.1985166,15 24.3390435,15.404956 26.3426294,16.1844435 C26.9860101,16.4347484 27.7104855,16.1160974 27.9607904,15.4727166 C28.2110951,14.8293359 27.8924443,14.1048605 27.2490634,13.8545556 C24.9576428,12.963087 22.5098449,12.5 20,12.5 Z" id="Path"></path>
                <path d="M13.75,32.5 C13.75,43.545695 22.704305,52.5 33.75,52.5 C44.795695,52.5 53.75,43.545695 53.75,32.5 C53.75,26.8912498 51.4277054,21.6512235 47.4126489,17.894021 C46.9085756,17.4223202 46.1175546,17.4485634 45.645854,17.9526366 C45.1741533,18.4567097 45.2003964,19.2477307 45.7044695,19.7194315 C49.2195014,23.0087217 51.25,27.5903394 51.25,32.5 C51.25,42.1649831 43.4149831,50 33.75,50 C24.0850169,50 16.25,42.1649831 16.25,32.5 C16.25,31.6324884 16.3130249,30.7733054 16.4376703,29.9268859 C16.5382486,29.2438959 16.0661106,28.6086882 15.3831207,28.5081099 C14.7001307,28.4075315 14.0649231,28.8796694 13.9643447,29.5626594 C13.8219545,30.5295779 13.75,31.510493 13.75,32.5 Z" id="Path"></path>
                <path d="M27.5,2.5 C37.1649831,2.5 45,10.3350169 45,20 C45,25.652329 42.303005,30.8521367 37.8273962,34.1293906 L35.2116932,35.7591086 C34.6261629,36.124821 34.4479651,36.8959555 34.8136774,37.4814859 C35.1793896,38.0670164 35.9505243,38.2452141 36.5360546,37.8795017 L39.2280693,36.1981154 C44.4163226,32.4032399 47.5,26.4579081 47.5,20 C47.5,8.954305 38.545695,0 27.5,0 C17.5016513,0 9.07729998,7.37991251 7.69632109,17.1877967 C7.60006641,17.8714095 8.07621419,18.5036169 8.75982691,18.5998716 C9.44343964,18.6961262 10.0756471,18.2199785 10.1719018,17.5363657 C11.3797331,8.95819681 18.7519232,2.5 27.5,2.5 Z" id="Path"></path>
                <path d="M41.25,27.5 C41.25,19.9060847 35.0939152,13.75 27.5,13.75 C19.9060847,13.75 13.75,19.9060847 13.75,27.5 C13.75,35.0939152 19.9060847,41.25 27.5,41.25 C35.0939152,41.25 41.25,35.0939152 41.25,27.5 Z M16.25,27.5 C16.25,21.2867966 21.2867966,16.25 27.5,16.25 C33.7132034,16.25 38.75,21.2867966 38.75,27.5 C38.75,33.7132034 33.7132034,38.75 27.5,38.75 C21.2867966,38.75 16.25,33.7132034 16.25,27.5 Z" id="Shape"></path>
                <path d="M35,27.5 C35,23.3578644 31.6421356,20 27.5,20 C23.3578644,20 20,23.3578644 20,27.5 C20,31.6421356 23.3578644,35 27.5,35 C31.6421356,35 35,31.6421356 35,27.5 Z M22.5,27.5 C22.5,24.7385763 24.7385763,22.5 27.5,22.5 C30.2614237,22.5 32.5,24.7385763 32.5,27.5 C32.5,30.2614237 30.2614237,32.5 27.5,32.5 C24.7385763,32.5 22.5,30.2614237 22.5,27.5 Z" id="Shape"></path>
                <path d="M18.3299335,30.4991076 C17.7126617,36.5969074 21.0526487,41.25 27.5,41.25 L27.5,38.75 C22.677805,38.75 20.3375247,35.4896458 20.817222,30.7508924 C21.2758827,26.2199525 24.197106,22.5 27.5,22.5 L27.5,20 C22.6967414,20 18.9038085,24.8300073 18.3299335,30.4991076 Z" id="Path"></path>
            </g>
            <g id="Group-Copy" transform="translate(143.000000, 3.000000)" font-family="Montserrat-Bold, Montserrat" font-size="38" font-weight="bold">
                <text id="Liberators">
                    <tspan x="0" y="37">Liberators</tspan>
                </text>
            </g>
            <g id="Group-Copy-2" transform="translate(0.000000, 3.000000)" font-family="Montserrat-Bold, Montserrat" font-size="38" font-weight="bold">
                <text id="The">
                    <tspan x="0" y="37">The</tspan>
                </text>
            </g>
        </g>
    </g>
</svg>