<?xml version="1.0" encoding="UTF-8"?>
<svg width="340px" height="86px" viewBox="0 0 340 86" version="1.1" xmlns="http://www.w3.org/2000/svg" xmlns:xlink="http://www.w3.org/1999/xlink">
    <title>wing@2x</title>
    <g id="Page-1" stroke="none" stroke-width="1" fill="none" fill-rule="evenodd">
        <g id="wing">
            <g id="noun_wing_1382875" transform="translate(41.000000, 41.000000) scale(-1, 1) translate(-41.000000, -41.000000) " fill-rule="nonzero">
                <path d="M42.4,36.5 C50.2,32.4 57.6,28.5 77.3,2.5 C77.6,2.1 77.6,1.5 77.2,1.1 C76.8,0.7 76.3,0.7 75.8,1 C68.2,6.5 59.3,10.3 50.7,14 C37.7,19.6 24.2,25.3 14.9,37.2 C9.1,44.6 7,53.8 5.1,62.7 C3.8,68.4 2.5,74.3 0.2,79.6 C3.60822483e-16,80.1 0.2,80.7 0.6,80.9 C0.8,81 0.9,81 1.1,81 C1.4,81 1.7,80.9 1.9,80.6 C4.5,77.1 6.9,73.5 9.2,70 C13.7,63.1 18.4,56 24.6,49.7 C32.8,41.6 37.7,39 42.4,36.5 Z" id="Shape" fill="#F5623D"></path>
                <path d="M80.2,24.6 C76,28.1 69.1,30.9 61.1,34.2 C47.7,39.7 32.5,45.9 22.8,57.9 C22.5,58.3 22.5,58.8 22.8,59.1 C23,59.4 23.3,59.5 23.7,59.5 C23.8,59.5 23.9,59.5 24,59.4 C28.9,57.8 33.5,56.5 37.9,55.3 C55.2,50.5 68.9,46.8 81.8,25.8 C82.1,25.4 82,24.8 81.6,24.5 C81.1,24.3 80.6,24.3 80.2,24.6 Z" id="Shape" fill="#F5623D"></path>
                <path d="M70.8,50.9 C68.5,51.4 65.9,52 63.2,52.6 C44.6,56.8 21.5,61.9 15.4,67.1 C15.1,67.4 14.9,67.9 15.1,68.3 C15.3,68.7 15.6,68.9 16.1,68.9 C16.1,68.9 16.2,68.9 16.2,68.9 C18.5,68.6 20.9,68.4 23.7,68.3 C25.9,68.2 28,68.1 30.1,68 C32.1,67.9 34.2,67.8 36.2,67.7 C48.2,67 61,65.3 71.8,52.6 C72.1,52.3 72.1,51.8 71.9,51.4 C71.6,51 71.2,50.8 70.8,50.9 Z" id="Shape" fill="#F4603B"></path>
            </g>
            <g id="Group-2" transform="translate(89.000000, 16.000000)" fill="#F5623D" font-family="Montserrat-Bold, Montserrat" font-weight="bold">
                <g id="Group">
                    <text id="Liberators" font-size="38">
                        <tspan x="0" y="60">LIBERATORS</tspan>
                    </text>
                    <text id="the" font-size="26">
                        <tspan x="0" y="25">the</tspan>
                    </text>
                </g>
            </g>
        </g>
    </g>
</svg>